<svg xmlns="http://www.w3.org/2000/svg" viewBox="0 0 220 220"><defs><filter id="g"><feGaussianBlur stdDeviation="3" result="b"/><feMerge><feMergeNode in="b"/><feMergeNode in="SourceGraphic"/></feMerge></filter></defs><g stroke="#10120e" stroke-width="7" stroke-linejoin="round"><path fill="#333d2c" d="M35 210l13-95 35-25 55 7 35 91-39 25-27-52-24 52z"/><path fill="#52643f" d="M48 116l38-29 55 12 19 64-50 23-55-20z"/><path fill="#6d844e" d="M64 82l5-49 39-22 45 19 13 47-30 34-50-5z"/><path fill="#2a3125" d="M48 120L4 153l14 23 50-29zM159 120l56 27-10 25-56-23z"/></g><path d="M86 58l17 3M126 60l16 5" stroke="#ff261d" stroke-width="9" filter="url(#g)"/><path d="M99 84l27 7-22 14" fill="none" stroke="#211915" stroke-width="7"/><path d="M77 40l32-22 17 13-17 19M62 128l35 13-23 20M151 130l-35 25" fill="none" stroke="#9b332b" stroke-width="6"/><path d="M62 113l91 20M72 158l82-19" stroke="#1e251c" stroke-width="10"/><circle cx="109" cy="125" r="9" fill="#e52b20" filter="url(#g)"/></svg>